<mxfile host="app.diagrams.net" modified="2022-11-07T19:38:41.156Z" agent="5.0 (Windows NT 10.0; Win64; x64) AppleWebKit/537.36 (KHTML, like Gecko) Chrome/107.0.0.0 Safari/537.36" etag="cMi_Wnokw14tOi5_MECZ" version="20.5.1" type="github">
  <diagram id="tM2nWxl7KX0AxRf4ENj3" name="ページ1">
    <mxGraphModel dx="1422" dy="729" grid="1" gridSize="10" guides="1" tooltips="1" connect="1" arrows="1" fold="1" page="1" pageScale="1" pageWidth="827" pageHeight="1169" math="0" shadow="0">
      <root>
        <mxCell id="0" />
        <mxCell id="1" parent="0" />
        <mxCell id="ExsZxsCPLvvITjwQGhQG-7" style="edgeStyle=orthogonalEdgeStyle;rounded=0;orthogonalLoop=1;jettySize=auto;html=1;entryX=0.5;entryY=0;entryDx=0;entryDy=0;strokeWidth=3;fontSize=16;" edge="1" parent="1" source="ExsZxsCPLvvITjwQGhQG-1" target="ExsZxsCPLvvITjwQGhQG-2">
          <mxGeometry relative="1" as="geometry" />
        </mxCell>
        <mxCell id="ExsZxsCPLvvITjwQGhQG-8" style="edgeStyle=orthogonalEdgeStyle;rounded=0;orthogonalLoop=1;jettySize=auto;html=1;exitX=0.5;exitY=1;exitDx=0;exitDy=0;entryX=0.5;entryY=0;entryDx=0;entryDy=0;strokeWidth=3;fontSize=16;" edge="1" parent="1" source="ExsZxsCPLvvITjwQGhQG-1" target="ExsZxsCPLvvITjwQGhQG-3">
          <mxGeometry relative="1" as="geometry" />
        </mxCell>
        <mxCell id="ExsZxsCPLvvITjwQGhQG-1" value="Pass1to2[5]" style="rounded=0;whiteSpace=wrap;html=1;fontSize=16;" vertex="1" parent="1">
          <mxGeometry x="360" y="160" width="120" height="60" as="geometry" />
        </mxCell>
        <mxCell id="ExsZxsCPLvvITjwQGhQG-9" style="edgeStyle=orthogonalEdgeStyle;rounded=0;orthogonalLoop=1;jettySize=auto;html=1;exitX=0.5;exitY=1;exitDx=0;exitDy=0;entryX=0.5;entryY=0;entryDx=0;entryDy=0;strokeWidth=3;fontSize=16;" edge="1" parent="1" source="ExsZxsCPLvvITjwQGhQG-2" target="ExsZxsCPLvvITjwQGhQG-5">
          <mxGeometry relative="1" as="geometry" />
        </mxCell>
        <mxCell id="ExsZxsCPLvvITjwQGhQG-10" style="edgeStyle=orthogonalEdgeStyle;rounded=0;orthogonalLoop=1;jettySize=auto;html=1;exitX=0.5;exitY=1;exitDx=0;exitDy=0;entryX=0.5;entryY=0;entryDx=0;entryDy=0;strokeWidth=3;fontSize=16;" edge="1" parent="1" source="ExsZxsCPLvvITjwQGhQG-2" target="ExsZxsCPLvvITjwQGhQG-4">
          <mxGeometry relative="1" as="geometry" />
        </mxCell>
        <mxCell id="ExsZxsCPLvvITjwQGhQG-2" value="Dribble2[4]" style="rounded=0;whiteSpace=wrap;html=1;fontSize=16;" vertex="1" parent="1">
          <mxGeometry x="280" y="280" width="120" height="60" as="geometry" />
        </mxCell>
        <mxCell id="ExsZxsCPLvvITjwQGhQG-11" style="edgeStyle=orthogonalEdgeStyle;rounded=0;orthogonalLoop=1;jettySize=auto;html=1;exitX=0.5;exitY=1;exitDx=0;exitDy=0;entryX=0.5;entryY=0;entryDx=0;entryDy=0;strokeWidth=3;fontSize=16;" edge="1" parent="1" source="ExsZxsCPLvvITjwQGhQG-3" target="ExsZxsCPLvvITjwQGhQG-6">
          <mxGeometry relative="1" as="geometry" />
        </mxCell>
        <mxCell id="ExsZxsCPLvvITjwQGhQG-3" value="Pass2to3[1]" style="rounded=0;whiteSpace=wrap;html=1;fontSize=16;" vertex="1" parent="1">
          <mxGeometry x="440" y="280" width="120" height="60" as="geometry" />
        </mxCell>
        <mxCell id="ExsZxsCPLvvITjwQGhQG-4" value="Pass2to1[1]" style="rounded=0;whiteSpace=wrap;html=1;fontSize=16;" vertex="1" parent="1">
          <mxGeometry x="120" y="400" width="120" height="60" as="geometry" />
        </mxCell>
        <mxCell id="ExsZxsCPLvvITjwQGhQG-5" value="Dribble2[3]" style="rounded=0;whiteSpace=wrap;html=1;fontSize=16;" vertex="1" parent="1">
          <mxGeometry x="280" y="400" width="120" height="60" as="geometry" />
        </mxCell>
        <mxCell id="ExsZxsCPLvvITjwQGhQG-6" value="Dribble3[1]" style="rounded=0;whiteSpace=wrap;html=1;fontSize=16;" vertex="1" parent="1">
          <mxGeometry x="440" y="400" width="120" height="60" as="geometry" />
        </mxCell>
      </root>
    </mxGraphModel>
  </diagram>
</mxfile>
